<svg width="38" height="38" viewBox="0 0 38 38" fill="none" xmlns="http://www.w3.org/2000/svg">
<path fill-rule="evenodd" clip-rule="evenodd" d="M14.135 9.2869C14.0594 9.27498 13.9825 9.27317 13.9064 9.2815C12.3926 9.4453 10.0886 10.2625 8.7278 11.0005C8.63792 11.0495 8.55747 11.1141 8.4902 11.1913C7.925 11.8375 7.412 12.8905 7.0106 13.8877C6.5966 14.9101 6.2546 15.9901 6.062 16.7713C5.4248 19.3093 5.0774 22.3567 5.0306 25.2475C5.02911 25.3918 5.06377 25.5341 5.1314 25.6615C5.6714 26.6929 6.836 27.6487 8.0024 28.3471C9.1814 29.0545 10.5584 29.6125 11.6672 29.7205C11.8001 29.7332 11.934 29.7149 12.0586 29.6671C12.1832 29.6194 12.2951 29.5434 12.3854 29.4451C12.6626 29.1445 13.1342 28.4425 13.4906 27.8971C13.6526 27.6487 13.8056 27.4111 13.9244 27.2221C15.116 27.4381 16.61 27.5641 18.5 27.5641C20.3864 27.5641 21.8804 27.4381 23.072 27.2221C23.1908 27.4129 23.342 27.6487 23.504 27.8953C23.8604 28.4425 24.332 29.1445 24.611 29.4451C24.7013 29.5434 24.8132 29.6194 24.9378 29.6671C25.0624 29.7149 25.1964 29.7332 25.3292 29.7205C26.438 29.6125 27.8132 29.0545 28.9922 28.3471C30.1586 27.6487 31.3232 26.6929 31.865 25.6615C31.932 25.5339 31.966 25.3916 31.964 25.2475C31.919 22.3567 31.5698 19.3075 30.9362 16.7695C30.6816 15.7893 30.3635 14.8267 29.984 13.8877C29.5826 12.8905 29.0696 11.8357 28.5062 11.1913C28.4384 11.114 28.3573 11.0493 28.2668 11.0005C26.9078 10.2625 24.6038 9.4453 23.0882 9.2815C23.0127 9.27333 22.9364 9.27514 22.8614 9.2869C22.5222 9.35219 22.204 9.49924 21.9344 9.7153C21.3306 10.2014 20.8424 10.8156 20.5052 11.5135C19.8381 11.4612 19.1692 11.4354 18.5 11.4361C17.7764 11.4361 17.1068 11.4631 16.4894 11.5117C16.1519 10.8144 15.6638 10.2008 15.0602 9.7153C14.7912 9.4995 14.4736 9.35247 14.135 9.2869ZM24.8324 26.7685C25.0857 27.1586 25.3456 27.5445 25.6118 27.9259C26.3246 27.7639 27.2336 27.3859 28.1048 26.8639C29.0822 26.2789 29.858 25.6039 30.2324 25.0333C30.173 22.3225 29.8382 19.5073 29.2604 17.1889C29.025 16.2859 28.7316 15.3991 28.382 14.5339C28.022 13.6375 27.635 12.8779 27.2984 12.4423C26.1284 11.8357 24.2834 11.1949 23.081 11.0203C23.0448 11.0422 23.01 11.0663 22.9766 11.0923C22.8275 11.2096 22.6911 11.3424 22.5698 11.4883C22.4988 11.5728 22.431 11.6599 22.3664 11.7493C22.9154 11.8501 23.405 11.9707 23.8388 12.1039C25.07 12.4819 25.9574 13.0039 26.3912 13.5817C26.5287 13.765 26.5877 13.9954 26.5553 14.2223C26.5229 14.4491 26.4017 14.6538 26.2184 14.7913C26.1276 14.8594 26.0243 14.9089 25.9144 14.9371C25.8045 14.9652 25.6901 14.9715 25.5778 14.9554C25.351 14.923 25.1463 14.8018 25.0088 14.6185C24.9026 14.4781 24.44 14.0965 23.3312 13.7545C22.2602 13.4269 20.6852 13.1641 18.5 13.1641C16.3148 13.1641 14.738 13.4269 13.6688 13.7563C12.56 14.0983 12.0974 14.4763 11.9912 14.6185C11.9231 14.7093 11.8378 14.7857 11.7402 14.8436C11.6426 14.9014 11.5345 14.9394 11.4222 14.9554C11.1953 14.9878 10.9649 14.9288 10.7816 14.7913C10.6908 14.7232 10.6144 14.6379 10.5566 14.5403C10.4987 14.4427 10.4607 14.3346 10.4447 14.2223C10.4123 13.9954 10.4713 13.765 10.6088 13.5817C11.0426 13.0021 11.93 12.4837 13.1612 12.1057C13.5932 11.9707 14.0828 11.8519 14.63 11.7511C14.5653 11.6607 14.4968 11.573 14.4248 11.4883C14.3041 11.3425 14.1683 11.2097 14.0198 11.0923C13.9858 11.0662 13.9504 11.0422 13.9136 11.0203C12.713 11.1949 10.868 11.8357 9.698 12.4423C9.3596 12.8797 8.9744 13.6375 8.6126 14.5339C8.2292 15.4879 7.9106 16.4905 7.736 17.1889C7.1564 19.5073 6.8216 22.3225 6.764 25.0333C7.1384 25.6057 7.9124 26.2789 8.8898 26.8657C9.7628 27.3877 10.67 27.7657 11.3846 27.9259C11.6535 27.5463 11.9134 27.1604 12.164 26.7685C10.751 26.2663 9.9932 25.5769 9.5 24.8389C9.43712 24.7444 9.39349 24.6383 9.37158 24.5269C9.34967 24.4155 9.34992 24.3009 9.37232 24.1896C9.39472 24.0782 9.43882 23.9724 9.50212 23.8781C9.56541 23.7839 9.64665 23.703 9.7412 23.6401C9.83575 23.5772 9.94176 23.5336 10.0532 23.5117C10.1646 23.4898 10.2792 23.49 10.3906 23.5124C10.5019 23.5348 10.6077 23.5789 10.702 23.6422C10.7962 23.7055 10.8771 23.7868 10.94 23.8813C11.408 24.5869 12.6392 25.8361 18.5 25.8361C24.3626 25.8361 25.592 24.5869 26.06 23.8813C26.187 23.6903 26.3846 23.5577 26.6094 23.5124C26.8343 23.4672 27.0678 23.5131 27.2588 23.6401C27.4498 23.7671 27.5824 23.9647 27.6277 24.1896C27.6729 24.4144 27.627 24.6479 27.5 24.8389C27.0068 25.5769 26.2472 26.2681 24.8324 26.7685ZM12.344 18.6217C12.7832 18.1501 13.379 17.8837 14 17.8801C14.621 17.8837 15.2168 18.1501 15.656 18.6217C16.0934 19.0951 16.34 19.7341 16.34 20.4001C16.34 21.0661 16.0934 21.7051 15.656 22.1785C15.2168 22.6501 14.621 22.9165 14 22.9201C13.6878 22.9168 13.3797 22.8493 13.0948 22.7217C12.8099 22.5941 12.5543 22.4092 12.344 22.1785C11.9005 21.6928 11.6563 21.0578 11.66 20.4001C11.66 19.7341 11.9066 19.0951 12.344 18.6217ZM23 17.8801C22.379 17.8837 21.7832 18.1501 21.344 18.6217C20.9066 19.0951 20.66 19.7341 20.66 20.4001C20.66 21.0661 20.9066 21.7051 21.344 22.1785C21.7832 22.6501 22.379 22.9165 23 22.9201C23.621 22.9165 24.2168 22.6501 24.656 22.1785C25.0934 21.7051 25.34 21.0661 25.34 20.4001C25.34 19.7341 25.0934 19.0951 24.656 18.6217C24.4457 18.391 24.1901 18.2061 23.9052 18.0785C23.6203 17.9509 23.3122 17.8834 23 17.8801Z" fill="white"/>
<rect x="1.5" y="1.5" width="35" height="35" rx="3.5" stroke="white" stroke-width="3"/>
</svg>
