<svg width="38" height="38" viewBox="0 0 38 38" fill="none" xmlns="http://www.w3.org/2000/svg">
<path d="M16.5205 13.1803V15.7966H14.6053V18.9943H16.5205V28.5H20.4573V18.9943H23.0983C23.0983 18.9943 23.3472 17.461 23.4669 15.7833H20.4725V13.5983C20.4725 13.2696 20.9019 12.8307 21.3275 12.8307H23.4707V9.5H20.5542C16.4236 9.5 16.5205 12.7015 16.5205 13.1803Z" fill="white"/>
<path d="M7.6 3.8C6.59218 3.8 5.62563 4.20036 4.91299 4.91299C4.20036 5.62563 3.8 6.59218 3.8 7.6V30.4C3.8 31.4078 4.20036 32.3744 4.91299 33.087C5.62563 33.7996 6.59218 34.2 7.6 34.2H30.4C31.4078 34.2 32.3744 33.7996 33.087 33.087C33.7996 32.3744 34.2 31.4078 34.2 30.4V7.6C34.2 6.59218 33.7996 5.62563 33.087 4.91299C32.3744 4.20036 31.4078 3.8 30.4 3.8H7.6ZM7.6 0H30.4C32.4156 0 34.3487 0.800712 35.774 2.22599C37.1993 3.65127 38 5.58435 38 7.6V30.4C38 32.4156 37.1993 34.3487 35.774 35.774C34.3487 37.1993 32.4156 38 30.4 38H7.6C5.58435 38 3.65127 37.1993 2.22599 35.774C0.800712 34.3487 0 32.4156 0 30.4V7.6C0 5.58435 0.800712 3.65127 2.22599 2.22599C3.65127 0.800712 5.58435 0 7.6 0Z" fill="white"/>
</svg>
