<svg width="38" height="38" viewBox="0 0 38 38" fill="none" xmlns="http://www.w3.org/2000/svg">
<g clip-path="url(#clip0_2_539)">
<path opacity="0.2" d="M13.3207 20.0836L30 8.09112C29.8818 8.03554 29.7533 8.00469 29.6226 8.00049C29.4919 7.9963 29.3618 8.01884 29.2402 8.06672L6.6171 16.9116C5.71022 17.2654 5.83277 18.583 6.78867 18.7782L13.3207 20.0836ZM18.8233 24.9025L14.9996 28.7088C14.8632 28.8467 14.6887 28.9411 14.4983 28.9801C14.3079 29.019 14.1101 29.0007 13.9301 28.9274C13.7502 28.8542 13.5962 28.7294 13.4876 28.5688C13.3791 28.4082 13.321 28.2192 13.3207 28.0256V20.0836L18.8233 24.9025Z" fill="white"/>
<path d="M30.3636 7.44761C30.1074 7.22705 29.7971 7.08114 29.4659 7.02538C29.1346 6.96963 28.7946 7.00612 28.4821 7.13097L7.17444 15.6334C6.8007 15.7781 6.48414 16.0436 6.27348 16.389C6.06283 16.7344 5.96977 17.1406 6.00863 17.545C6.0433 17.9493 6.20603 18.3312 6.47241 18.6336C6.73878 18.9359 7.09446 19.1424 7.48609 19.222L12.8996 20.3127V27.185C12.8994 27.5568 13.0079 27.9203 13.2113 28.2293C13.4148 28.5383 13.704 28.779 14.0423 28.9207C14.2662 29.0123 14.5051 29.06 14.7464 29.0614C14.989 29.0623 15.2293 29.014 15.4532 28.9194C15.6772 28.8247 15.8803 28.6856 16.0507 28.5103L19.0518 25.4728L23.588 29.5305C23.9229 29.8306 24.3535 29.9973 24.8 29.9996C24.9964 30.0038 25.1919 29.972 25.3772 29.9058C25.6817 29.8079 25.9559 29.6309 26.1725 29.3923C26.3891 29.1537 26.5407 28.8618 26.6122 28.5454L30.9522 9.28883C31.0281 8.95655 31.0134 8.60955 30.9097 8.28513C30.8059 7.96072 30.6171 7.67117 30.3636 7.44761ZM13.6037 18.5419L7.85545 17.3808L23.969 10.9424L13.6037 18.5419ZM14.7464 27.185V21.6262L17.6551 24.2297L14.7464 27.185ZM24.8116 28.1232L15.3004 19.6208L29.0015 9.57029L24.8116 28.1232Z" fill="white"/>
<rect x="1.5" y="1.5" width="35" height="35" rx="3.5" stroke="white" stroke-width="3"/>
</g>
<defs>
<clipPath id="clip0_2_539">
<rect width="38" height="38" fill="white"/>
</clipPath>
</defs>
</svg>
