<svg width="41" height="41" viewBox="0 0 41 41" fill="none" xmlns="http://www.w3.org/2000/svg">
<path d="M13.6667 32.4583H8.54167V15.375H13.6667V32.4583ZM32.4583 32.4583H27.3333V23.3324C27.3333 20.9544 26.486 19.7705 24.8067 19.7705C23.4759 19.7705 22.632 20.4334 22.2083 21.7608V32.4583H17.0833C17.0833 32.4583 17.1517 17.0833 17.0833 15.375H21.1287L21.4413 18.7917H21.5472C22.5978 17.0833 24.2771 15.9251 26.58 15.9251C28.331 15.9251 29.7472 16.412 30.8286 17.6351C31.9168 18.86 32.4583 20.5034 32.4583 22.8114V32.4583Z" fill="white"/>
<path d="M11.1042 13.6665C12.5666 13.6665 13.7521 12.5192 13.7521 11.104C13.7521 9.68877 12.5666 8.5415 11.1042 8.5415C9.64176 8.5415 8.45625 9.68877 8.45625 11.104C8.45625 12.5192 9.64176 13.6665 11.1042 13.6665Z" fill="white"/>
<rect x="3.5" y="4.5" width="35" height="35" rx="3.5" stroke="white" stroke-width="3"/>
</svg>
