<svg width="38" height="38" viewBox="0 0 38 38" fill="none" xmlns="http://www.w3.org/2000/svg">
<path d="M19 0C13.8349 0 13.1912 0.0249406 11.1698 0.110451C9.14014 0.210214 7.76722 0.524941 6.55582 0.995249C5.28796 1.4739 4.13974 2.2233 3.19121 3.19121C2.2206 4.13753 1.47078 5.28638 0.995249 6.55582C0.524941 7.76722 0.210214 9.14014 0.110451 11.1698C0.0190024 13.1924 0 13.8349 0 19C0 24.1651 0.0249406 24.8088 0.110451 26.8302C0.210214 28.8539 0.524941 30.2328 0.995249 31.4442C1.4739 32.712 2.2233 33.8603 3.19121 34.8088C4.13753 35.7794 5.28638 36.5292 6.55582 37.0048C7.76722 37.4691 9.14608 37.7898 11.1698 37.8895C13.1924 37.981 13.8349 38 19 38C24.1651 38 24.8088 37.9751 26.8302 37.8895C28.8539 37.7898 30.2328 37.4679 31.4442 37.0048C32.712 36.5261 33.8603 35.7767 34.8088 34.8088C35.7807 33.8635 36.5307 32.7143 37.0048 31.4442C37.4691 30.2328 37.7898 28.8539 37.8896 26.8302C37.981 24.8076 38 24.1651 38 19C38 13.8349 37.9751 13.1912 37.8896 11.1698C37.7898 9.14608 37.4679 7.76009 37.0048 6.55582C36.5261 5.28796 35.7767 4.13974 34.8088 3.19121C33.8635 2.21935 32.7144 1.46933 31.4442 0.995249C30.2328 0.524941 28.8539 0.210214 26.8302 0.110451C24.8076 0.0190024 24.1651 0 19 0ZM19 3.42043C24.0724 3.42043 24.6781 3.44537 26.6829 3.53088C28.5321 3.61758 29.5392 3.92637 30.2078 4.18765C31.0345 4.49278 31.7826 4.97844 32.3979 5.60926C33.0276 6.22188 33.5115 6.96835 33.8135 7.79335C34.0748 8.46199 34.3836 9.46912 34.4703 11.3183C34.5558 13.323 34.5808 13.9299 34.5808 19.0012C34.5808 24.0724 34.5558 24.6793 34.4632 26.6841C34.3634 28.5333 34.0546 29.5404 33.7945 30.209C33.4347 31.101 33.0333 31.7245 32.3705 32.399C31.7533 33.0259 31.0056 33.5092 30.1805 33.8147C29.5202 34.076 28.4988 34.3848 26.6425 34.4715C24.6271 34.557 24.0333 34.5819 18.9477 34.5819C13.8622 34.5819 13.2696 34.557 11.2518 34.4644C9.40261 34.3646 8.38242 34.0558 7.71378 33.7957C6.81116 33.4359 6.1924 33.0344 5.52969 32.3717C4.86105 31.7031 4.43587 31.0665 4.10808 30.1817C3.84204 29.5214 3.538 28.5 3.43943 26.6437C3.37173 24.652 3.33967 24.0344 3.33967 18.9727C3.33967 13.9133 3.37173 13.2945 3.43943 11.2779C3.538 9.42162 3.84204 8.40261 4.10808 7.7399C4.43587 6.8361 4.86223 6.21853 5.52969 5.54988C6.19121 4.88836 6.81116 4.46081 7.71378 4.12589C8.38242 3.8658 9.37767 3.55701 11.234 3.46437C13.2494 3.39192 13.8432 3.3658 18.9216 3.3658L19 3.42043ZM19 9.24822C17.7189 9.24775 16.4503 9.49973 15.2667 9.98976C14.0831 10.4798 13.0076 11.1983 12.1017 12.1041C11.1959 13.01 10.4774 14.0854 9.98738 15.2691C9.49735 16.4527 9.24538 17.7213 9.24584 19.0024C9.24538 20.2834 9.49735 21.552 9.98738 22.7357C10.4774 23.9193 11.1959 24.9948 12.1017 25.9006C13.0076 26.8065 14.0831 27.525 15.2667 28.015C16.4503 28.505 17.7189 28.757 19 28.7565C20.2811 28.757 21.5497 28.505 22.7333 28.015C23.9169 27.525 24.9924 26.8065 25.8983 25.9006C26.8041 24.9948 27.5226 23.9193 28.0126 22.7357C28.5026 21.552 28.7546 20.2834 28.7542 19.0024C28.7546 17.7213 28.5026 16.4527 28.0126 15.2691C27.5226 14.0854 26.8041 13.01 25.8983 12.1041C24.9924 11.1983 23.9169 10.4798 22.7333 9.98976C21.5497 9.49973 20.2811 9.24775 19 9.24822V9.24822ZM19 25.3361C15.4988 25.3361 12.6663 22.5036 12.6663 19.0024C12.6663 15.5012 15.4988 12.6686 19 12.6686C22.5012 12.6686 25.3337 15.5012 25.3337 19.0024C25.3337 22.5036 22.5012 25.3361 19 25.3361ZM31.4276 8.85867C31.4269 9.46397 31.186 10.0443 30.7578 10.4721C30.3296 10.8998 29.749 11.1401 29.1437 11.1401C28.8444 11.1401 28.548 11.0812 28.2715 10.9667C27.995 10.8521 27.7438 10.6842 27.5321 10.4726C27.3205 10.261 27.1526 10.0097 27.0381 9.73322C26.9236 9.45671 26.8646 9.16034 26.8646 8.86104C26.8646 8.56175 26.9236 8.26539 27.0381 7.98887C27.1526 7.71236 27.3205 7.46111 27.5321 7.24948C27.7438 7.03785 27.995 6.86997 28.2715 6.75543C28.548 6.6409 28.8444 6.58195 29.1437 6.58195C30.3991 6.58195 31.4276 7.60333 31.4276 8.85867V8.85867Z" fill="white"/>
</svg>
